<?xml version="1.0" encoding="utf-8"?>
<!-- Generator: Adobe Illustrator 15.0.0, SVG Export Plug-In . SVG Version: 6.00 Build 0)  -->
<!DOCTYPE svg PUBLIC "-//W3C//DTD SVG 1.1//EN" "http://www.w3.org/Graphics/SVG/1.1/DTD/svg11.dtd">
<svg version="1.1" id="Layer_1" xmlns="http://www.w3.org/2000/svg" xmlns:xlink="http://www.w3.org/1999/xlink" x="0px" y="0px"
	 width="100px" height="100px" viewBox="0 0 100 100" enable-background="new 0 0 100 100" xml:space="preserve">
<polygon display="none" fill="#EDC504" points="49.834,8.228 59.889,44.568 97.556,42.899 66.103,63.692 79.327,99 49.834,75.511 
	20.34,99 33.564,63.692 2.114,42.899 39.78,44.568 "/>
<path fill-rule="evenodd" clip-rule="evenodd" fill="#EDC504" d="M69.593,60.764c-0.981-0.538-5.81-3.143-6.714-3.511
	c-0.905-0.369-1.567-0.56-2.273,0.417c-0.702,0.974-2.707,3.155-3.312,3.803c-0.61,0.647-1.196,0.707-2.182,0.169
	c-0.979-0.539-4.165-1.717-7.86-5.269c-2.875-2.765-4.761-6.114-5.307-7.138c-0.549-1.025-0.004-1.547,0.515-2.025
	c0.469-0.435,1.047-1.135,1.569-1.698c0.52-0.563,0.703-0.976,1.06-1.631c0.359-0.653,0.214-1.244-0.018-1.754
	c-0.23-0.511-2.048-5.51-2.806-7.545c-0.758-2.033-1.605-1.733-2.188-1.755c-0.584-0.02-1.248-0.129-1.914-0.155
	c-0.67-0.025-1.763,0.185-2.716,1.152c-0.956,0.966-3.632,3.291-3.817,8.216c-0.185,4.923,3.223,9.816,3.699,10.5
	c0.475,0.688,6.505,11.361,16.526,15.749c10.024,4.392,10.078,3.054,11.916,2.956c1.842-0.099,6.011-2.202,6.934-4.506
	c0.922-2.304,0.996-4.31,0.763-4.733C71.232,61.578,70.574,61.302,69.593,60.764 M51.21,12.65c-21.65,0-39.203,17.552-39.203,39.205
	c0,7.409,2.057,14.335,5.627,20.244l-7.079,21.034l21.706-6.948c5.617,3.105,12.076,4.877,18.948,4.877
	c21.655,0,39.21-17.555,39.21-39.207C90.42,30.203,72.865,12.65,51.21,12.65"/>
</svg>
